<?xml version="1.0" encoding="utf-8"?>
<!-- Generator: Adobe Illustrator 24.0.0, SVG Export Plug-In . SVG Version: 6.00 Build 0)  -->
<svg version="1.1" xmlns="http://www.w3.org/2000/svg" xmlns:xlink="http://www.w3.org/1999/xlink" x="0px" y="0px"
	 viewBox="0 0 541 210" style="enable-background:new 0 0 541 210;" xml:space="preserve">
<style type="text/css">
	.st0{display:none;}
	.st1{display:inline;}
	.st2{fill:#FFE63F;}
	.st3{fill:none;}
	.st4{opacity:0.27;}
	.st5{fill:#808080;}
	.st6{fill:#3FA9F5;}
	.st7{fill:#6ABCEF;}
	.st8{fill:#A6D6F4;}
	.st9{fill:#FFFFFF;}
	.st10{fill:url(#SVGID_1_);}
	.st11{fill:none;stroke:#000000;stroke-width:0.5;stroke-linecap:round;stroke-linejoin:round;}
</style>
<g id="Layer_3" class="st0">
	<g class="st1">
		<g>
			<path class="st2" d="M256.52,10.98c-1.68,2.4-4.21,4.08-5.86,6.52c-1.8,2.66-1.88,6.01-0.09,8.71c2.04,3.08,5.51,4.49,8.98,5.31
				c3.93,0.93,7.97,1.51,12,1.81c7.28,0.54,15.18,0.43,21.96-2.6c5.81-2.61,10.33-8.12,10.46-14.67c0.06-2.84-1.05-7.93-4.43-8.5
				c-1.67-0.28-3.35,0.72-4.2,2.13c-1.15,1.91-0.64,4.25-0.09,6.26c0.52,1.86,3.41,1.07,2.89-0.8c-0.33-1.19-1.02-3.1-0.04-4.17
				c1.08-1.19,1.8,0.39,2.2,1.33c0.91,2.14,0.83,4.56,0.18,6.75c-1.52,5.17-5.95,8.45-10.94,9.97c-5.68,1.74-11.88,1.73-17.75,1.31
				c-3.41-0.24-6.79-0.72-10.13-1.43c-2.72-0.58-5.74-1.26-7.75-3.33c-2.06-2.12-2.09-4.79-0.31-7.06c1.69-2.16,3.93-3.79,5.51-6.05
				C260.23,10.91,257.63,9.41,256.52,10.98L256.52,10.98z"/>
		</g>
	</g>
	<g class="st1">
		<g>
			<path class="st2" d="M417.04-11.39c1.93,0,1.93-3,0-3C415.11-14.39,415.11-11.39,417.04-11.39L417.04-11.39z"/>
		</g>
	</g>
	<g class="st1">
		<g>
			<path class="st2" d="M370.57,74.4c44.33-0.06,88.66-0.12,132.98-0.18c0-36.67,0-73.33,0-110c-49.44,1.23-98.9,0.84-148.31-1.19
				c0,36.67,0,73.33,0,110c82.21-1.25,164.43-1.85,246.65-1.76c23.21,0.02,46.41,0.1,69.62,0.23c0-36.67,0-73.33,0-110
				c-66.82,1.69-133.66,1.86-200.49,0.51c0,36.67,0,73.33,0,110c82.05,1.34,164.1,2.67,246.15,4.01c0-36.67,0-73.33,0-110
				c-83.8,1.9-167.59,3.74-251.39,5.71c-27.8,0.66-56.96,3.41-80.94,18.92c-16.49,10.66-27.24,27.42-27.24,47.49
				c0.03,9.93,2.53,19.18,7.51,27.76c4.89,8.26,11.47,14.84,19.73,19.73c3.07,2.29,6.28,4.2,9.73,5.85
				c7.16,3.4,14.66,6.67,22.3,8.97c7.71,2.33,15.69,3.56,23.64,4.73c22.67,3.35,45.41,6.32,68.15,9.13
				c36.95,4.56,73.93,8.85,110.9,13.25c21.33,2.54,42.66,5.08,63.99,7.61c-4.87-36.01-9.75-72.02-14.62-108.04
				c-14.01,4.09-28.3,6.92-42.76,8.88c4.87-0.65,9.75-1.31,14.62-1.96c-34.02,4.43-68.37,4.13-102.6,4.93
				c-38.28,0.9-77.22,3.54-114.37,13.33c-18.48,4.87-33.37,20.09-38.41,38.41c-5.24,19.03,0.35,39.52,14.14,53.51
				c10.62,10.78,23.5,17.61,37.76,22.27c10.06,3.28,21.06,4.01,31.49,5.13c16.57,1.78,33.18,3.27,49.78,4.8
				c33.71,3.12,67.44,5.97,101.19,8.56c19.19,1.47,38.39,2.86,57.6,4.16c-4.87-36.01-9.75-72.02-14.62-108.04
				c-14.6,5.68-29.8,9.19-45.3,11.34c4.87-0.65,9.75-1.31,14.62-1.96c-26.77,3.53-53.79,3.19-80.72,3.79
				c-31.05,0.69-62.78,2.91-92.84,11.14c-8.72,2.39-17.88,7.75-24.27,14.14c-8.6,8.6-13.53,19.67-15.13,31.58
				c-1.35,10.06-0.2,19.14,3.75,28.5c4.35,10.32,12.11,21.2,22.5,26.3c15.84,7.77,32.42,14.22,49.58,18.35
				c13.23,3.18,26.69,5.26,40.14,7.22c26.74,3.9,53.85,7.38,79.01,17.8c-4.38-1.85-8.76-3.7-13.14-5.54
				c3.54,1.51,7.02,3.14,10.44,4.91c4.38-33.51,8.76-67.02,13.14-100.53c-8.87,1.71-17.78,3.18-26.73,4.41
				c4.87-0.65,9.75-1.31,14.62-1.96c-26.24,3.49-52.69,4.79-79.15,3.89c-19.18-0.66-37.96,10.96-47.49,27.24
				c-9.46,16.17-10.77,39.48,0,55.52c6.92,10.3,14.94,19.39,25.96,25.51c7.03,3.91,15.48,7.51,23.63,8.81
				c14.6,2.34,29.16,3.24,43.88,4.23c22.87,1.54,45.74,3.08,68.61,4.62c0-36.67,0-73.33,0-110c-68.76,3.49-137.62,5.06-206.47,4.65
				c-68.85-0.41-137.69-2.77-206.4-7.09c-17.72-1.11-35.5-2.86-53.27-2.32c-12.6,0.39-25.34,1.96-37.67,4.42
				c-12.46,2.49-24.34,7.58-35.73,13.08c-3.71,2.87-7.42,5.73-11.13,8.6c-5.36,4.98-9.15,10.88-11.37,17.7
				c-4.61,10.93-6.53,24.21-2.77,35.81c7.54,23.3,28.03,40.1,53.04,40.38c37.59,0.42,75.17,0.83,112.76,1.25c0-36.67,0-73.33,0-110
				c-84,3.95-168.18,4.07-252.19,0.27c-23.81-1.08-47.61-2.47-71.39-4.17c9.25,34.16,18.51,68.33,27.76,102.49
				c1.07-0.49,2.15-0.96,3.23-1.41c-4.38,1.85-8.76,3.7-13.14,5.54c8.76-3.51,17.86-5.63,27.19-6.97
				c-4.87,0.65-9.75,1.31-14.62,1.96c16.1-2.12,32.4-2.18,48.61-2.6c17.58-0.45,35.17-0.86,52.75-1.21
				c35.17-0.7,70.35-1.21,105.52-1.51c19.91-0.17,39.82-0.27,59.74-0.32c14.12-0.03,28.9-6.11,38.89-16.11
				c9.54-9.54,16.72-25.19,16.11-38.89c-0.64-14.22-5.31-28.98-16.11-38.89c-10.94-10.04-23.85-15.67-38.89-16.11
				c-44.5-1.3-88.91-4.9-133.04-10.77c4.87,0.65,9.75,1.31,14.62,1.96c-25.3-3.41-50.5-7.55-75.56-12.43
				c-4.87,36.01-9.75,72.02-14.62,108.04c80.53-0.4,161.06-0.8,241.58-2.42c80.47-1.62,160.94-4.46,241.26-9.75
				c45.42-2.99,90.78-6.78,136.04-11.54c7.57,0.29,14.64-1.29,21.19-4.74c6.82-2.22,12.72-6.01,17.7-11.37
				c9.54-9.54,16.72-25.19,16.11-38.89c-0.64-14.22-5.31-28.98-16.11-38.89c-11.03-10.12-23.79-15.44-38.89-16.11
				c-77.41-3.41-154.82-6.82-232.23-10.23c-77.41-3.41-154.82-6.82-232.23-10.23c-43.85-1.93-87.71-3.86-131.56-5.8
				c0,36.67,0,73.33,0,110c65.24-0.23,130.49-0.45,195.73-0.69c64.8-0.24,129.63-0.65,194.38-3.59c16.97-0.77,34-1.45,50.9-3.25
				c21.09-2.25,42.4-5.02,62.37-12.47c13.1-4.89,26.02-12.32,32.87-25.28c5.87-11.11,8.21-22.56,6.53-35.07
				c-1.55-11.54-6.29-23.47-15.13-31.58c-3.71-2.87-7.42-5.73-11.13-8.6c-8.58-4.98-17.83-7.48-27.76-7.51
				c-49.63-5.6-99.19-11.73-148.69-18.38c4.87,0.65,9.75,1.31,14.62,1.96C284.47,37.01,178,20.19,71.98,0.9
				C42.24-4.51,12.54-10.12-17.13-15.91c0,35.36,0,70.71,0,106.07C-2.88,84.82,11.95,81.69,27,79.6c-4.87,0.65-9.75,1.31-14.62,1.96
				c23.92-3.17,48.11-4.49,72.17-6.24c25.08-1.83,50.17-3.53,75.27-5.09c50.2-3.13,100.43-5.74,150.68-7.81
				c28.43-1.17,56.87-2.17,85.31-3.01c14.36-0.42,28.63-5.84,38.89-16.11c9.54-9.54,16.72-25.19,16.11-38.89
				c-0.64-14.22-5.31-28.98-16.11-38.89c-10.7-9.83-24.04-16.25-38.89-16.11c-96.77,0.89-193.56-2.54-290.01-10.38
				c-27.32-2.22-54.61-4.8-81.87-7.71c0,36.67,0,73.33,0,110c114.23,0.59,228.46,2.82,342.61,7.45c32.52,1.32,65.02,2.83,97.52,4.55
				c0-36.67,0-73.33,0-110c-72.13,0.24-144.26,0.49-216.39,0.73c-72.13,0.24-144.26,0.49-216.39,0.73
				c-19.94,0.07-39.89,0.13-59.83,0.2c-9.01,0.03-18.06-0.21-27.02,0.86c-8.13,0.97-16.87,1.55-24.75,4.18
				c-7.83,2.62-16.12,5.75-22.95,10.55c-3.71,2.87-7.42,5.73-11.13,8.6c-5.36,4.98-9.15,10.88-11.37,17.7
				c-4.61,10.93-6.53,24.21-2.77,35.81c7.35,22.71,28.17,40.99,53.04,40.38c24.43-0.6,48.93-1.09,73.23,2.03
				c-4.87-0.65-9.75-1.31-14.62-1.96c10.52,1.44,20.88,3.56,31.05,6.62c0-35.36,0-70.71,0-106.07
				C-7.92-30.75-29.97-25.17-52.01-19.6c-13.59,3.44-26.02,7-38.82,13.25c-1.7,0.83-3.31,1.79-4.86,2.87
				c-4.84,3.37-10.16,7.06-14.3,11.31c-8.8,9.03-15.66,20.21-19.1,32.39c-10.58,37.46,9.03,77.9,42.35,96.52
				c21.75,12.15,45.92,15.08,69.99,19.38c25.52,4.56,51.04,9.12,76.56,13.68c0-35.36,0-70.71,0-106.07
				c-13.35,2.85-26.79,5.21-40.32,7.07c4.87-0.65,9.75-1.31,14.62-1.96c-25.14,3.37-50.46,4.98-75.83,4.81
				c-14.04-0.09-28.98,6.2-38.89,16.11c-9.54,9.54-16.72,25.19-16.11,38.89c0.64,14.22,5.31,28.98,16.11,38.89
				c11,10.09,23.81,15.52,38.89,16.11c3.64,0.14,7.29,0.28,10.93,0.42c13.75,0.53,29.29-6.51,38.89-16.11
				c9.54-9.54,16.72-25.19,16.11-38.89c-0.64-14.22-5.31-28.98-16.11-38.89c-11-10.09-23.81-15.52-38.89-16.11
				c-3.64-0.14-7.29-0.28-10.93-0.42c0,36.67,0,73.33,0,110c43.83,0.29,87.92-4.69,130.77-13.84c4.38-1.85,8.76-3.7,13.14-5.54
				c6.41-3.46,11.55-8.18,15.43-14.17c7.17-9.28,12.35-21.28,11.81-33.33c-0.44-9.76-2.94-19.12-7.51-27.76
				c-5.73-10.85-20.55-23.08-32.87-25.28c-22.58-4.03-45.15-8.06-67.73-12.1c-11.12-1.99-22.25-3.97-33.37-5.96
				c-9.3-1.66-18.58-3.4-27.35-7.02c4.38,1.85,8.76,3.7,13.14,5.54c-3.9-1.73-7.5-3.79-10.9-6.38c3.71,2.87,7.42,5.73,11.13,8.6
				c-2.17-1.81-4.06-3.78-5.8-6.01c2.87,3.71,5.73,7.42,8.6,11.13c-1.65-2.31-3.01-4.7-4.14-7.31c1.85,4.38,3.7,8.76,5.54,13.14
				c-0.83-2.17-1.45-4.32-1.87-6.6c0.65,4.87,1.31,9.75,1.96,14.62c-0.3-2.25-0.36-4.41-0.16-6.67c-0.65,4.87-1.31,9.75-1.96,14.62
				c0.27-1.78,0.67-3.43,1.28-5.13c-1.85,4.38-3.7,8.76-5.54,13.14c0.74-1.71,1.6-3.23,2.68-4.76c-2.87,3.71-5.73,7.42-8.6,11.13
				c1.19-1.47,2.45-2.75,3.9-3.98c-3.71,2.87-7.42,5.73-11.13,8.6c2.68-2.04,5.5-3.57,8.59-4.89c-4.38,1.85-8.76,3.7-13.14,5.54
				c13.45-5.29,28.24-7.84,42.22-11.37c15.66-3.96,31.31-7.91,46.97-11.87c4.38-1.85,8.76-3.7,13.14-5.54
				c6.41-3.46,11.55-8.18,15.43-14.17c7.17-9.28,12.35-21.28,11.81-33.33C83.31,6.95,80.8-2.4,76.24-11.04
				C69.8-23.22,56.23-32.45,43.37-36.32C4.97-47.87-35.82-47.9-75.53-46.93c9.25,34.16,18.51,68.33,27.76,102.49
				c2.19-1.54,4.43-2.8,6.86-3.9c-4.38,1.85-8.76,3.7-13.14,5.54c3.98-1.59,8.04-2.58,12.28-3.23c-4.87,0.65-9.75,1.31-14.62,1.96
				c15.38-1.98,31.29-0.97,46.77-1.03c17.28-0.06,34.57-0.12,51.85-0.17c33.91-0.11,67.81-0.23,101.72-0.34
				c68.14-0.23,136.29-0.46,204.43-0.69c38.56-0.13,77.12-0.26,115.68-0.39c14.13-0.05,28.88-6.1,38.89-16.11
				c9.54-9.54,16.72-25.19,16.11-38.89c-0.64-14.22-5.31-28.98-16.11-38.89c-11.08-10.17-23.75-15.31-38.89-16.11
				c-114.08-6.03-228.28-9.5-342.5-11.09c-32.54-0.45-65.08-0.75-97.63-0.92C9.87-68.75-5.04-62.49-14.97-52.57
				c-9.54,9.54-16.72,25.19-16.11,38.89c0.64,14.22,5.31,28.98,16.11,38.89c3.71,2.87,7.42,5.73,11.13,8.6
				c8.58,4.98,17.83,7.48,27.76,7.51c96.22,10.28,192.89,16.25,289.65,17.81c27.41,0.44,54.82,0.52,82.23,0.27
				c0-36.67,0-73.33,0-110C282.03-47.24,168.34-41.2,54.85-32.45C20.99-29.83-14.3-27.94-46.37-15.91
				c-4.38,1.85-8.76,3.7-13.14,5.54C-65.92-6.91-71.06-2.19-74.94,3.8c-7.17,9.28-12.35,21.28-11.81,33.33
				c0.44,9.76,2.94,19.12,7.51,27.76c5.83,11.03,20.47,22.86,32.87,25.28c72.23,14.1,144.68,27.08,217.32,38.9
				c76.85,12.51,153.91,23.63,231.11,33.73c41.05,5.37,82.14,10.36,123.28,15.01c-4.87-36.01-9.75-72.02-14.62-108.04
				c-13.09,4.88-26.68,7.79-40.51,9.65c4.87-0.65,9.75-1.31,14.62-1.96c-28.08,3.59-56.63,4.19-84.9,5.19
				c-29.41,1.04-58.83,1.62-88.26,1.97c-58.39,0.7-116.79,0.67-175.18,0.88c-33.3,0.12-66.61,0.24-99.91,0.35
				c-14.13,0.05-28.88,6.1-38.89,16.11c-9.54,9.54-16.72,25.19-16.11,38.89c0.64,14.22,5.31,28.98,16.11,38.89
				c11.03,10.12,23.79,15.44,38.89,16.11c77.41,3.41,154.82,6.82,232.23,10.23c77.41,3.41,154.82,6.82,232.23,10.23
				c43.85,1.93,87.71,3.86,131.56,5.8c0-36.67,0-73.33,0-110c-80.04,8.41-160.37,13.75-240.77,17.14
				c-80.45,3.4-160.97,4.88-241.48,5.67c-45.54,0.45-91.08,0.67-136.63,0.9c-13.53,0.07-29.56,5.94-38.89,16.11
				c-8.34,9.08-13.48,19.3-15.13,31.58c-1.58,11.72-0.08,24.83,6.53,35.07c7.43,11.52,18.92,22.56,32.87,25.28
				c73.52,14.31,148.35,22.97,223.23,25.16c0-36.67,0-73.33,0-110c-80.29,0.18-160.68,0.83-240.92,3.68
				c-14.44,0.51-28.66,2.09-42.95,4.31c-14.53,2.26-27.52,7.51-40.94,13.54c-3.71,2.87-7.42,5.73-11.13,8.6
				c-5.36,4.98-9.15,10.88-11.37,17.7c-4.61,10.93-6.53,24.21-2.77,35.81c2.94,9.07,7.7,17.25,14.14,24.27
				c9.94,10.82,24.83,15.11,38.89,16.11c83.88,5.97,168.03,8.12,252.11,6.34c23.83-0.5,47.66-1.33,71.47-2.45
				c14.51-0.68,28.45-5.67,38.89-16.11c9.54-9.54,16.72-25.19,16.11-38.89c-0.64-14.22-5.31-28.98-16.11-38.89
				c-10.83-9.94-23.93-15.94-38.89-16.11c-37.59-0.42-75.17-0.83-112.76-1.25c9.25,34.16,18.51,68.33,27.76,102.49
				c1.55-0.75,3.11-1.46,4.69-2.14c-4.38,1.85-8.76,3.7-13.14,5.54c7.95-3.24,16.16-5.29,24.64-6.53
				c-4.87,0.65-9.75,1.31-14.62,1.96c29.14-3.86,59.24,0.45,88.42,2.13c32.05,1.85,64.13,3.27,96.23,4.27
				c63.52,1.97,127.1,2.28,190.64,0.92c35.74-0.77,71.47-2.07,107.17-3.88c14.54-0.74,28.41-5.63,38.89-16.11
				c9.54-9.54,16.72-25.19,16.11-38.89c-0.64-14.22-5.31-28.98-16.11-38.89c-11.16-10.25-23.7-15.09-38.89-16.11
				c-16.34-1.1-32.67-2.2-49.01-3.3c-15.55-1.05-31.27-1.52-46.75-3.29c4.87,0.65,9.75,1.31,14.62,1.96
				c-3.73-0.5-7.31-1.26-10.81-2.68c4.38,1.85,8.76,3.7,13.14,5.54c-1.63-0.77-3.09-1.62-4.53-2.7c3.71,2.87,7.42,5.73,11.13,8.6
				c-1.03-0.9-1.87-1.78-2.73-2.84c2.87,3.71,5.73,7.42,8.6,11.13c-0.25-0.37-0.5-0.75-0.76-1.12
				c-15.83,27.59-31.66,55.17-47.49,82.76c40.38,1.39,80.86-2.61,120.5-10.26c4.38-1.85,8.76-3.7,13.14-5.54
				c3.71-2.87,7.42-5.73,11.13-8.6c8.6-8.6,13.53-19.67,15.13-31.58c1.35-10.06,0.2-19.14-3.75-28.5
				c-4.42-10.48-12.09-20.93-22.5-26.3c-28.94-14.91-59.08-21.9-90.99-26.57c-27.32-4-55.03-7.48-80.68-18.25
				c4.38,1.85,8.76,3.7,13.14,5.54c-2.53-1.09-5.02-2.24-7.5-3.46c-4.38,33.51-8.76,67.02-13.14,100.53
				c9.56-2.62,19.27-4.51,29.09-5.88c-4.87,0.65-9.75,1.31-14.62,1.96c62.97-8.35,129.17,3.2,189.77-20.39
				c13.15-5.12,25.93-12.15,32.87-25.28c5.87-11.11,8.21-22.56,6.53-35.07c-1.55-11.54-6.29-23.47-15.13-31.58
				c-3.71-2.87-7.42-5.73-11.13-8.6c-8.58-4.98-17.83-7.48-27.76-7.51c-36.09-2.45-72.16-5.19-108.21-8.24
				c-35.14-2.97-70.61-5.22-105.57-9.91c4.87,0.65,9.75,1.31,14.62,1.96c-4.93-0.73-9.74-1.75-14.41-3.53
				c4.38,1.85,8.76,3.7,13.14,5.54c-2.69-1.14-5.15-2.49-7.52-4.2c3.71,2.87,7.42,5.73,11.13,8.6c-1.15-0.93-2.19-1.87-3.22-2.92
				c-8.09,30.64-16.18,61.28-24.27,91.93c11.78-3.1,23.72-5.38,35.78-7.05c-4.87,0.65-9.75,1.31-14.62,1.96
				c74.5-9.91,150.83,1.26,223.96-20.09c12.82-3.74,26.49-13.2,32.87-25.28c5.87-11.11,8.21-22.56,6.53-35.07
				c-1.55-11.54-6.29-23.47-15.13-31.58c-3.71-2.87-7.42-5.73-11.13-8.6c-8.58-4.98-17.83-7.48-27.76-7.51
				c-68.04-8.1-136.2-15.54-204.11-24.61c4.87,0.65,9.75,1.31,14.62,1.96c-18.45-2.48-38.26-3.72-55.62-10.92
				c4.38,1.85,8.76,3.7,13.14,5.54c-4-1.78-7.71-3.89-11.22-6.51c0,31.66,0,63.32,0,94.98c2.71-1.76,5.51-3.26,8.46-4.58
				c-4.38,1.85-8.76,3.7-13.14,5.54c6.5-2.7,13.24-4.29,20.19-5.29c-4.87,0.65-9.75,1.31-14.62,1.96c16.27-2.1,32.89-1.73,49.27-2.1
				c18.47-0.42,36.94-0.84,55.41-1.26c36.29-0.82,72.59-1.65,108.88-2.47c20.79-0.47,41.58-0.94,62.36-1.42
				c14.3-0.32,28.69-5.91,38.89-16.11c9.54-9.54,16.72-25.19,16.11-38.89c-0.64-14.22-5.31-28.98-16.11-38.89
				c-10.86-9.97-23.91-15.87-38.89-16.11c-82.05-1.34-164.1-2.67-246.15-4.01c-13.96-0.23-29.08,6.29-38.89,16.11
				c-9.54,9.54-16.72,25.19-16.11,38.89c0.64,14.22,5.31,28.98,16.11,38.89c10.88,9.99,23.89,15.8,38.89,16.11
				c66.82,1.36,133.67,1.19,200.49-0.51c14.32-0.36,28.67-5.88,38.89-16.11c9.54-9.54,16.72-25.19,16.11-38.89
				c-0.64-14.22-5.31-28.98-16.11-38.89c-10.79-9.91-23.96-16.03-38.89-16.11c-82.22-0.46-164.44-0.25-246.66,0.63
				c-23.21,0.25-46.41,0.55-69.62,0.91c-14.24,0.22-28.77,5.98-38.89,16.11c-9.54,9.54-16.72,25.19-16.11,38.89
				c0.64,14.22,5.31,28.98,16.11,38.89c11.01,10.11,23.8,15.49,38.89,16.11c49.41,2.03,98.87,2.42,148.31,1.19
				c14.32-0.36,28.67-5.89,38.89-16.11c9.54-9.54,16.72-25.19,16.11-38.89C557.92,5,553.25-9.75,542.45-19.66
				c-10.75-9.87-24-16.13-38.89-16.11c-44.33,0.06-88.66,0.12-132.98,0.18c-14.11,0.02-28.9,6.12-38.89,16.11
				c-9.54,9.54-16.72,25.19-16.11,38.89c0.64,14.22,5.31,28.98,16.11,38.89C342.44,68.17,355.68,74.42,370.57,74.4L370.57,74.4z"/>
		</g>
	</g>
</g>
<g id="Layer_1">
	<g>
		<polygon class="st3" points="291.97,103.33 304.77,103.33 298.37,83.63 		"/>
		<polygon points="84.38,96.13 60.88,59.93 38.68,59.93 38.68,130.73 60.88,130.73 60.88,95.13 84.38,130.73 106.58,130.73 
			106.58,59.93 84.38,59.93 		"/>
		<path d="M156.78,99.83c0,3.27-0.77,5.85-2.3,7.75c-1.53,1.9-3.9,2.85-7.1,2.85c-3.2,0-5.52-0.95-6.95-2.85
			c-1.43-1.9-2.15-4.48-2.15-7.75v-39.9h-22.1v39.9c0,6.8,1.3,12.57,3.9,17.3c2.6,4.73,6.22,8.3,10.85,10.7
			c4.63,2.4,9.95,3.6,15.95,3.6s11.43-1.2,16.3-3.6c4.87-2.4,8.7-5.98,11.5-10.75c2.8-4.77,4.2-10.52,4.2-17.25v-39.9h-22.1V99.83z"
			/>
		<polygon points="236.17,59.93 221.67,108.63 207.07,59.93 183.47,59.93 207.27,130.73 235.97,130.73 259.77,59.93 		"/>
		<path d="M285.67,59.93l-25.9,70.8h23.3l3.5-10.7h23.6l3.5,10.7h23.4l-25.8-70.8H285.67z M291.97,103.33l6.4-19.7l6.4,19.7H291.97z
			"/>
		<polygon points="364.27,59.93 342.07,59.93 342.07,130.73 385.67,130.73 385.67,113.93 364.27,113.93 		"/>
		<polygon points="387.67,59.93 397.14,78.3 394.22,59.93 		"/>
		<polygon points="487.87,100.03 508.47,130.73 534.87,130.73 508.87,93.83 533.27,59.93 508.17,59.93 487.87,89.73 487.87,59.93 
			473.1,59.93 487.18,130.73 487.87,130.73 		"/>
		<polygon class="st4" points="413.07,130.73 435.27,130.73 435.27,109.23 460.67,59.93 435.67,59.93 424.37,85.03 413.07,59.93 
			394.22,59.93 397.14,78.3 413.07,109.23 		"/>
		<polygon class="st4" points="465.67,59.93 465.67,130.73 487.18,130.73 473.1,59.93 		"/>
	</g>
	<path class="st5" d="M487.32,153.41l-74.72,6.46c-1.65,0.14-3.1-1.08-3.25-2.73l-0.61-7.09c-0.14-1.65,1.08-3.1,2.73-3.25
		l74.72-6.46c1.65-0.14,3.1,1.08,3.25,2.73l0.61,7.09C490.19,151.81,488.97,153.27,487.32,153.41z"/>
	<path class="st6" d="M46.68,23.23L57.26,5.74l-18.09,9.5c-4.46,2.34-9.82,2.18-14.13-0.43L7.56,4.24l9.5,18.09l0,0
		c2.34,4.46,2.18,9.82-0.43,14.13L6.06,53.94l18.09-9.5c4.46-2.34,9.82-2.18,14.13,0.43l17.48,10.58l-9.5-18.09
		C43.91,32.89,44.08,27.54,46.68,23.23L46.68,23.23z"/>
	<path class="st7" d="M103.98,42.44l17.4-4.49l-17.22-5.15c-4.25-1.27-7.52-4.67-8.62-8.96L91.04,6.44l-5.15,17.22l0,0
		c-1.27,4.24-4.67,7.52-8.96,8.62l-17.4,4.49l17.22,5.15c4.24,1.27,7.52,4.67,8.62,8.96l4.49,17.4l5.15-17.22
		C96.29,46.82,99.68,43.55,103.98,42.44L103.98,42.44z"/>
	<path class="st8" d="M36.57,71.85l3.96-6.55l-6.77,3.56c-1.67,0.88-3.68,0.82-5.29-0.16l-6.55-3.96l3.56,6.77l0,0
		c0.88,1.67,0.82,3.68-0.16,5.29l-3.96,6.55l6.77-3.56c1.67-0.88,3.68-0.82,5.29,0.16l6.55,3.96l-3.56-6.77
		C35.53,75.47,35.59,73.47,36.57,71.85L36.57,71.85z"/>
	<path class="st9" d="M27.71,21.5l0.38-4.88l-2.85,3.98c-0.7,0.98-1.87,1.52-3.07,1.43l-4.88-0.38l3.98,2.85l0,0
		c0.98,0.7,1.52,1.86,1.43,3.07l-0.38,4.88l2.85-3.98c0.7-0.98,1.87-1.52,3.07-1.43l4.88,0.38l-3.98-2.85
		C28.16,23.86,27.62,22.7,27.71,21.5L27.71,21.5z"/>
	<path class="st9" d="M34.48,70.35l0.13-1.66l-0.97,1.35c-0.24,0.33-0.63,0.52-1.04,0.49l-1.66-0.13l1.35,0.97l0,0
		c0.33,0.24,0.52,0.63,0.49,1.04l-0.13,1.66l0.97-1.35c0.24-0.33,0.63-0.52,1.04-0.49l1.66,0.13l-1.35-0.97
		C34.64,71.16,34.45,70.76,34.48,70.35L34.48,70.35z"/>
	<path class="st9" d="M79.75,35.45l1.66-2.06l-2.49,0.9c-0.61,0.22-1.3,0.11-1.81-0.3l-2.06-1.66l0.9,2.49l0,0
		c0.22,0.61,0.11,1.3-0.3,1.81L74,38.69l2.49-0.9c0.61-0.22,1.3-0.11,1.81,0.3l2.06,1.66l-0.9-2.49
		C79.23,36.65,79.34,35.96,79.75,35.45L79.75,35.45z"/>
	<g class="st4">
		
			<rect x="423.16" y="145.71" transform="matrix(0.9963 -0.0861 0.0861 0.9963 -10.983 37.7973)" class="st9" width="18.93" height="1"/>
		<path class="st9" d="M486.3,141.07l-33.32,2.88l0.09,1l33.05-2.86C487,142,487,141,486.3,141.07z"/>
	</g>
	<g id="Layer_2">
	</g>
	<g>
		<g>
			<path class="st9" d="M423.74,161.8c0.66,0.47-0.05,0.82-0.53,1.37c-0.79,0.9-1.49,1.77-1.89,2.91c0.96,0.27,1.93,0.53,2.89,0.8
				c0.19-0.68,0.47-1.22,0.88-1.78c-0.93-0.25-1.86-0.5-2.8-0.76c-0.17,1.96-1.51,7.56,2.08,7.27c1.51-0.12,1.92-1.55,2.13-2.81
				c0.27-1.63,0.37-3.27,0.29-4.92c-0.09-1.92-2.95-1.94-3,0c-0.06,2.2-0.11,4.4-0.17,6.6c-0.03,1.37,1.63,1.88,2.56,1.06
				c1.24-1.1,1.43-2.72,1.39-4.29c-0.05-1.94-2.9-1.92-3,0c-0.1,1.78-0.19,3.57-0.29,5.35c1,0,2,0,3,0c0.03-0.7,0.01-1.38-0.07-2.07
				c-0.15-1.36-2.02-2.19-2.8-0.76c-0.7,1.29-1.2,2.63-1.46,4.07c0.96,0.27,1.93,0.53,2.89,0.8c0.1-0.71,0.19-1.41,0.29-2.12
				c-0.96,0-1.93,0-2.89,0c0.33,1.36,0.6,3.53,2.39,3.58c1.61,0.04,2.41-1.82,2.79-3.11c-0.98-0.13-1.96-0.27-2.95-0.4
				c0.01,1.14,0.02,2.27,0.03,3.41c0.01,1.2,1.71,2.11,2.56,1.06c0.43-0.54,0.87-1.07,1.3-1.61c-0.85-0.35-1.71-0.71-2.56-1.06
				c0.02,1.48,0.04,2.95,0.07,4.43c0.03,1.69,2.48,2.04,2.95,0.4c0.74-2.6,0.85-5.22,0.43-7.88c-0.27-1.71-2.92-1.24-2.95,0.4
				c-0.03,2.2-0.07,4.4-0.1,6.6c-0.03,1.59,1.98,1.9,2.8,0.76c0.83-1.17,1.22-2.47,1.28-3.89c0.09-1.94-2.87-1.91-3,0
				c-0.12,1.75-0.29,3.49-0.55,5.22c-0.28,1.85,2.41,2.72,2.89,0.8c0.35-1.4,0.71-2.81,1.07-4.21c-0.98-0.13-1.96-0.27-2.95-0.4
				c-0.02,1.36-0.04,2.73-0.06,4.09c-0.02,1.48,2.06,2.05,2.8,0.76c1.23-2.17,1.57-4.56,1.05-6.98c-0.34-1.58-2.41-1.26-2.89,0
				c-0.58,1.52-1.05,3.07-1.42,4.66c0.98,0.13,1.96,0.27,2.95,0.4c0.04-1.6-0.12-3.17-0.44-4.73c-0.25-1.24-2.18-1.49-2.74-0.36
				c-0.67,1.35-1.33,2.81-1,4.36c0.27,1.28,1.15,2.46,2.46,2.81c1.39,0.38,2.79-0.33,3.66-1.4c1.08-1.33,1.09-2.99,1.42-4.59
				c-0.48,0.37-0.96,0.73-1.45,1.1c1.88,0.04,3.64-0.38,5.32-1.22c1.54-0.76,0.46-3.19-1.16-2.74c-0.85,0.24-1.66,0.55-2.47,0.91
				c-1.43,0.63-0.62,2.78,0.76,2.8c1.78,0.02,3.42-0.39,5-1.2c1.55-0.8,0.46-3.14-1.16-2.74c-0.78,0.19-1.41,0.56-1.94,1.16
				c-0.94,1.07-0.06,2.96,1.46,2.51c1.81-0.54,3.38-1.46,4.72-2.79c0.99-0.98-0.01-3.09-1.46-2.51c-0.46,0.19-0.92,0.37-1.39,0.56
				c-0.2,0.08-0.4,0.16-0.59,0.24c-0.54,0.12-0.53,0.22,0.03,0.29c0.23,0.3,0.46,0.6,0.69,0.9c-0.08-0.3,0.04-0.82-0.1-1.08
				c0.15,0.27-0.56,0.16-0.12,0.31c0.11,0.04,0.32-0.09,0.41-0.13c0.7-0.27,1.19-0.81,1.49-1.49c0.7-1.57,0.34-3.62,0.26-5.27
				c-0.19-4.06-0.63-8.11-1.22-12.13c-0.3-2.03-0.64-4.04-1.02-6.06c-0.31-1.64-1.05-4.03-0.46-5.68c0.24-0.68,0.76-0.61,1.22-0.07
				c0.52,0.62,0.66,1.63,0.77,2.4c0.29,1.95,0.2,3.94,0.5,5.9c0.34,2.28,1.06,4.47,1.42,6.75c0.36,2.31,0.5,4.64,0.65,6.97
				c0.98-0.13,1.96-0.27,2.95-0.4c-1.07-7.69-2.71-15.27-4.92-22.71c-0.41-1.37-2.54-1.48-2.89,0c-0.81,3.44-0.5,6.88,0.01,10.34
				c0.53,3.57,1.16,7.13,1.88,10.67c0.39,1.89,3.28,1.09,2.89-0.8c-0.66-3.23-1.23-6.48-1.73-9.73c-0.49-3.2-0.91-6.48-0.15-9.68
				c-0.96,0-1.93,0-2.89,0c2.21,7.44,3.85,15.03,4.92,22.71c0.23,1.67,3.06,1.28,2.95-0.4c-0.17-2.68-0.36-5.35-0.79-8
				c-0.41-2.53-1.28-4.97-1.48-7.54c-0.19-2.44-0.04-5.1-1.12-7.36c-0.85-1.78-2.87-3.08-4.86-2.38c-2.19,0.76-2.49,3.3-2.4,5.29
				c0.13,2.58,0.8,5.13,1.23,7.67c0.9,5.36,1.49,10.77,1.65,16.21c0.02,0.57,0.08,1.18,0.02,1.75c0,0.03-0.14,0.49,0.1,0.26
				c-0.06,0.06-0.87,0.2-0.96,0.24c-1.12,0.51-1.3,1.63-1.25,2.73c0.05,1.1,0.18,2.34,1.44,2.67c1.19,0.31,2.64-0.63,3.69-1.06
				c-0.49-0.84-0.97-1.67-1.46-2.51c-0.97,0.97-2.08,1.63-3.4,2.02c0.49,0.84,0.97,1.67,1.46,2.51c0.13-0.25,0.34-0.38,0.62-0.39
				c-0.39-0.91-0.77-1.83-1.16-2.74c-1.11,0.57-2.24,0.81-3.49,0.79c0.25,0.93,0.5,1.86,0.76,2.8c0.57-0.25,1.16-0.44,1.75-0.61
				c-0.39-0.91-0.77-1.83-1.16-2.74c-1.21,0.6-2.46,0.84-3.81,0.81c-0.62-0.01-1.32,0.47-1.45,1.1c-0.18,0.86-0.12,3.44-1.16,3.81
				c-1.22,0.42-0.04-2.36,0.11-2.67c-0.91-0.12-1.83-0.24-2.74-0.36c0.27,1.31,0.36,2.6,0.33,3.93c-0.04,1.67,2.56,2.06,2.95,0.4
				c0.37-1.59,0.84-3.14,1.42-4.66c-0.96,0-1.93,0-2.89,0c0.35,1.63,0.07,3.23-0.75,4.67c0.93,0.25,1.86,0.5,2.8,0.76
				c0.02-1.36,0.04-2.73,0.06-4.09c0.03-1.68-2.53-2.05-2.95-0.4c-0.35,1.4-0.71,2.81-1.07,4.21c0.96,0.27,1.93,0.53,2.89,0.8
				c0.3-2,0.52-4,0.66-6.02c-1,0-2,0-3,0c-0.04,0.91-0.34,1.64-0.87,2.38c0.93,0.25,1.86,0.5,2.8,0.76c0.03-2.2,0.07-4.4,0.1-6.6
				c-0.98,0.13-1.96,0.27-2.95,0.4c0.33,2.12,0.15,4.23-0.43,6.28c0.98,0.13,1.96,0.27,2.95,0.4c-0.02-1.48-0.04-2.95-0.07-4.43
				c-0.02-1.19-1.7-2.12-2.56-1.06c-0.43,0.54-0.87,1.07-1.3,1.61c0.85,0.35,1.71,0.71,2.56,1.06c-0.01-1.14-0.02-2.27-0.03-3.41
				c-0.01-1.7-2.47-2.03-2.95-0.4c-0.05,0.24-0.13,0.46-0.24,0.68c-0.31,0.37-0.23,0.44,0.21,0.22c0.35,0.15,0.71,0.29,1.06,0.44
				c0.17,0.37,0.2,0.4,0.09,0.09c-0.07-0.21-0.13-0.42-0.19-0.63c-0.12-0.42-0.23-0.84-0.33-1.27c-0.32-1.35-2.69-1.51-2.89,0
				c-0.1,0.71-0.19,1.41-0.29,2.12c-0.25,1.86,2.54,2.73,2.89,0.8c0.22-1.19,0.58-2.29,1.16-3.35c-0.93-0.25-1.86-0.5-2.8-0.76
				c0.08,0.69,0.1,1.37,0.07,2.07c-0.08,1.93,2.9,1.92,3,0c0.1-1.78,0.19-3.57,0.29-5.35c-1,0-2,0-3,0
				c0.02,0.77,0.11,1.62-0.51,2.17c0.85,0.35,1.71,0.71,2.56,1.06c0.06-2.2,0.11-4.4,0.17-6.6c-1,0-2,0-3,0
				c0.04,0.83,0.04,1.66-0.01,2.49c-0.02,0.38-0.05,0.75-0.1,1.13c-0.01,0.09-0.29,1.32-0.24,1.39c0.49,0.02,0.98,0.04,1.46,0.05
				c0.01-0.2,0.02-0.41,0.04-0.61c0.03-0.39,0.07-0.78,0.1-1.18c0.08-0.94,0.16-1.88,0.24-2.82c0.14-1.64-2.01-1.83-2.8-0.76
				c-0.56,0.76-0.93,1.59-1.19,2.5c-0.52,1.88,2.26,2.6,2.89,0.8c0.48-1.35,1.9-2.18,2.54-3.46c0.86-1.72-0.07-3.19-1.49-4.21
				C423.69,158.08,422.19,160.68,423.74,161.8L423.74,161.8z"/>
		</g>
	</g>
	<g>
		<g>
			<path class="st9" d="M451.52,140.82c-4.11-0.25-4.97,5.56-3.34,8.3c0.94,1.59,2.68,1.45,3.66-0.07c0.45-0.69,0.65-1.48,0.74-2.29
				c0.08-0.68-0.21-2.43,0.34-2.89c-0.35,0.15-0.71,0.29-1.06,0.44c-0.52-0.3-0.67-0.3-0.45,0c0.07,0.12,0.13,0.24,0.18,0.36
				c0.13,0.31,0.23,0.63,0.31,0.96c0.16,0.67,0.22,1.35,0.25,2.04c0.06,1.5,0,3.01,0.02,4.51c0.05,3.25,0.25,6.5,0.59,9.73
				c0.2,1.9,2.89,1.96,3,0c0.26-4.49-0.28-8.99-1.56-13.31c-0.35-1.18-2.13-1.54-2.74-0.36c-1.78,3.46-1.05,7.23-1.31,10.96
				c1,0,2,0,3,0c-0.03-2.81-0.12-5.61-0.27-8.42c-0.09-1.62-2.55-2.12-2.95-0.4c-0.43,1.84-0.69,3.71-0.79,5.6c1,0,2,0,3,0
				c0.06-2.19,0.1-4.37-0.17-6.55c-0.24-1.91-2.79-1.94-3,0c-0.54,5.02-0.14,10.09,1.12,14.98c0.29,1.11,1.71,1.43,2.51,0.66
				c1.33-1.28,2.22-2.9,2.49-4.73c-0.73,0.3-1.47,0.6-2.2,0.9c0.34,0.21,0.54,1.65,0.79,2.11c0.52,0.94,1.42,1.48,2.49,1.55
				c2.26,0.16,4.55-1.24,5.66-3.16c1.34-2.3,0.89-5.39,0.76-7.92c-0.16-3.16-0.5-6.31-0.98-9.45c-0.22-1.42-2.7-1.44-2.89,0
				c-0.34,2.51,0.01,4.9,0.39,7.39c0.38,2.56,0.48,5.13,0.32,7.7c1,0,2,0,3,0c-0.16-2.56-0.31-5.12-0.47-7.68
				c-0.07-1.07-0.99-6.19,0.64-6.53c-0.49-0.13-0.97-0.26-1.46-0.39c0.14,0.18,0.36,1.1,0.5,1.5c0.22,0.66,0.43,1.32,0.62,1.99
				c0.38,1.34,0.69,2.69,0.93,4.06c0.48,2.76,0.61,5.57,0.49,8.37c0.98-0.13,1.96-0.27,2.95-0.4c-0.67-3.37-1.47-6.7-2.4-10
				c-0.39-1.38-2.55-1.47-2.89,0c-0.86,3.67-1.17,8.61,1.44,11.68c2.12,2.49,7.38,2.99,7.73-1.22c0.07-0.88-0.75-1.41-1.5-1.5
				c-0.96-0.12-1.89-0.02-2.82,0.26c0.62,0.35,1.23,0.7,1.85,1.05c-0.09-0.22-0.17-0.44-0.26-0.65c-0.48,0.63-0.96,1.27-1.45,1.9
				c1.21-0.05,2.6,0.07,3.78-0.21c1.2-0.29,1.82-1.38,2.18-2.48c0.81-2.52,0-5.08-0.41-7.58c-0.1-0.61-0.17-1.23-0.16-1.85
				c0.01-0.39,0.04-0.77,0.14-1.15c0.05-0.18,0.29-0.57,0.29-0.73c0.26-0.32,0.05-0.35-0.63-0.09c0.08,0.09,0.16,0.17,0.25,0.26
				c0.1,0.2,0.27,0.37,0.39,0.57c0.27,0.47,0.45,0.97,0.59,1.49c0.69,2.5,0.67,5.24,0.9,7.81c0.17,1.91,3.17,1.93,3,0
				c-0.25-2.88-0.23-6-1.06-8.79c-0.55-1.84-2.42-5.49-4.86-4c-2.58,1.58-2.09,5.49-1.61,7.96c0.28,1.46,0.72,3.01,0.48,4.51
				c-0.04,0.27-0.16,1-0.37,1.2c0.19-0.19-0.04-0.03-0.29-0.03c-0.87,0.01-1.73,0.07-2.6,0.11c-0.88,0.04-1.82,0.94-1.45,1.9
				c0.09,0.22,0.17,0.44,0.26,0.65c0.29,0.74,1,1.31,1.85,1.05c0.7-0.21,1.3-0.25,2.02-0.16c-0.5-0.5-1-1-1.5-1.5
				c-0.05,0.66-1.76-0.11-1.95-0.25c-0.81-0.6-1.23-1.56-1.47-2.5c-0.57-2.24-0.38-4.69,0.14-6.91c-0.96,0-1.93,0-2.89,0
				c0.93,3.3,1.73,6.64,2.4,10c0.34,1.72,2.88,1.23,2.95-0.4c0.13-3.15-0.08-6.29-0.64-9.39c-0.27-1.52-0.63-3.02-1.08-4.5
				c-0.42-1.39-0.8-3-1.7-4.15c-0.33-0.42-0.98-0.49-1.46-0.39c-2.98,0.63-3.14,4.61-2.99,6.95c0.2,3.38,0.41,6.77,0.62,10.15
				c0.12,1.93,2.88,1.93,3,0c0.15-2.4,0.07-4.78-0.24-7.17c-0.31-2.35-0.9-4.76-0.57-7.13c-0.96,0-1.93,0-2.89,0
				c0.37,2.46,0.64,4.94,0.8,7.42c0.14,2.12,0.52,4.61,0.07,6.71c-0.17,0.81-0.64,1.51-1.31,1.99c-0.44,0.31-1.49,0.89-2.03,0.62
				c0,0-0.29-1.1-0.4-1.39c-0.29-0.8-0.72-1.41-1.45-1.86c-0.75-0.46-2.06-0.06-2.2,0.9c-0.2,1.36-0.72,2.45-1.72,3.41
				c0.84,0.22,1.67,0.44,2.51,0.66c-1.2-4.65-1.52-9.41-1.01-14.18c-1,0-2,0-3,0c0.27,2.18,0.23,4.36,0.17,6.55
				c-0.05,1.94,2.9,1.92,3,0c0.09-1.63,0.31-3.21,0.68-4.8c-0.98-0.13-1.96-0.27-2.95-0.4c0.15,2.8,0.24,5.61,0.27,8.42
				c0.02,1.95,2.87,1.91,3,0c0.22-3.09-0.57-6.58,0.9-9.44c-0.91-0.12-1.83-0.24-2.74-0.36c1.21,4.08,1.69,8.26,1.45,12.51
				c1,0,2,0,3,0c-0.3-2.91-0.5-5.83-0.57-8.76c-0.06-2.62,0.2-5.34-0.31-7.93c-0.32-1.61-1.7-5.16-3.93-3.6
				c-0.94,0.66-1.17,1.9-1.26,2.98c-0.05,0.59,0.21,2.62-0.54,2.94c0.5,0,1.01,0,1.51,0c0.19,0.14,0.17,0.05-0.07-0.26
				c-0.09-0.22-0.16-0.45-0.21-0.68c-0.07-0.35-0.09-0.72-0.04-1.07c0.09-0.63,0.41-1.76,1.18-1.71
				C453.45,143.94,453.44,140.94,451.52,140.82L451.52,140.82z"/>
		</g>
	</g>
	<g>
		<g>
			<path class="st9" d="M475.4,148.13c0-0.33-0.01-0.67-0.01-1c-0.01-0.85-0.68-1.44-1.5-1.5c-1.4-0.1-2.03,1.5-2.46,2.56
				c-0.37,0.89-0.56,1.83-0.66,2.78c-0.21,1.91,0.19,3.84,1.02,5.56c0.34,0.71,1.41,0.95,2.05,0.54c0.73-0.47,0.91-1.3,0.54-2.05
				c-0.02-0.05-0.24-0.56-0.13-0.27c-0.07-0.17-0.13-0.34-0.18-0.52c-0.1-0.3-0.18-0.62-0.24-0.93c-0.01-0.06-0.1-0.62-0.05-0.28
				c-0.02-0.18-0.04-0.36-0.05-0.55c-0.02-0.34-0.02-0.69,0-1.03c0.01-0.16,0.02-0.32,0.04-0.48c0.02-0.18,0.02-0.18,0-0.01
				c0.01-0.09,0.03-0.18,0.05-0.27c0.06-0.34,0.15-0.67,0.25-1c0.05-0.15,0.11-0.3,0.16-0.45c0.07-0.16,0.07-0.17,0-0.02
				c0.04-0.08,0.07-0.17,0.11-0.25c0.08-0.17,0.16-0.33,0.25-0.49c0.04-0.08,0.09-0.16,0.14-0.24c0.15-0.22,0.08-0.17-0.19,0.17
				c-0.25,0.07-0.5,0.14-0.76,0.2c0.04,0,0.08,0.01,0.11,0.01c-0.5-0.5-1-1-1.5-1.5c0,0.33,0.01,0.67,0.01,1
				c0.01,0.78,0.68,1.54,1.5,1.5C474.7,149.59,475.4,148.97,475.4,148.13L475.4,148.13z"/>
		</g>
	</g>
	<g>
		<g>
			<path class="st9" d="M473.32,158.75c1.63,5.23,1.72,10.77,2.09,16.19c0.38,5.63,0.76,11.26,1.15,16.9
				c0.98-0.13,1.96-0.27,2.95-0.4c-0.27-1.34-0.27-2.67-0.09-4.02c-0.75,0.43-1.5,0.86-2.26,1.3c0.56,0.3,0.15,2.53,0.13,3.07
				c-0.05,1.47-0.08,2.95-0.15,4.42c-0.03,0.53,0,0.94-0.5,1.24c-0.45,0.27-1.15,0.29-1.65,0.36c-1.47,0.2-2.94,0.35-4.41,0.5
				c-5.89,0.61-11.81,0.98-17.72,1.31c-1.29,0.07-2.59,0.18-3.88,0.2c-1.01,0.01-2.33,0.01-2.96-0.93c-0.47-0.7-0.46-1.67-0.51-2.47
				c-0.06-1.1-0.09-2.25-0.45-3.3c-1.5-4.41-6.92-3.72-9.6-6.94c-1.56-1.87-2.45-4.24-3.68-6.32c-1.47-2.49-3.32-4.75-5.44-6.71
				c-1.42-1.31-3.54,0.81-2.12,2.12c2.19,2.03,4.02,4.35,5.46,6.97c1.17,2.13,2.16,4.35,3.77,6.2c1.72,1.98,3.95,2.64,6.3,3.56
				c0.83,0.32,1.74,0.73,2.22,1.52c0.63,1.04,0.49,2.44,0.58,3.61c0.21,2.51,1.22,4.72,3.84,5.44c1.14,0.31,2.34,0.29,3.51,0.24
				c1.81-0.09,3.61-0.2,5.42-0.31c6.73-0.4,13.47-0.86,20.16-1.74c1.32-0.17,2.69-0.43,3.65-1.44c1.15-1.21,1.01-3.03,1.06-4.57
				c0.06-1.73,0.21-3.49,0.17-5.22c-0.03-1.36-0.42-2.71-1.69-3.38c-1.1-0.58-2.11,0.17-2.26,1.3c-0.22,1.63-0.13,3.21,0.19,4.82
				c0.33,1.65,3.06,1.29,2.95-0.4c-0.39-5.79-0.79-11.59-1.18-17.38c-0.37-5.52-0.51-11.18-2.16-16.5
				C475.64,156.12,472.74,156.9,473.32,158.75L473.32,158.75z"/>
		</g>
	</g>
	<g>
		<g>
			<path class="st9" d="M432.1,177.14c3.28-0.18,6.55-0.36,9.83-0.53c-0.13-0.98-0.27-1.96-0.4-2.95c-2.53,0.5-5.14,0.66-7.76,0.5
				c0.43,0.75,0.86,1.5,1.3,2.26c-0.12,0.16-0.27,0.27-0.45,0.33c0.1-0.03,0.2-0.06,0.3-0.08c0.25-0.06,0.49-0.12,0.74-0.17
				c0.46-0.1,0.93-0.18,1.4-0.26c0.83-0.12,1.81-0.19,2.72-0.21c-0.13-0.98-0.27-1.96-0.4-2.95c-1.87,0.3-3.6,1.2-4.99,2.47
				c-0.76,0.7-0.47,2.35,0.66,2.51c0.95,0.13,1.89,0.26,2.84,0.38c0.44,0.06,0.88,0.12,1.32,0.18c0.23,0.03,0.46,0.05,0.69,0.1
				c0.08,0.01,0.16,0.03,0.24,0.06c-0.27-0.09-0.46-0.29-0.56-0.61c0.23-0.56,0.46-1.13,0.69-1.69c-1.52,0.71-3,1.31-4.61,1.86
				c-0.73,0.25-1.32,1.04-1.05,1.85c0.23,0.69,0.7,1.18,1.4,1.41c0.16,0.05,0.32,0.08,0.48,0.11c0.08,0.01,0.15,0.02,0.23,0.03
				c0.52,0.09-0.12,0.09-0.34-0.41c-0.05-0.39-0.1-0.77-0.15-1.16c-0.01,0.03-0.01,0.06-0.02,0.09c0.13-0.22,0.26-0.44,0.39-0.66
				c0.04-0.06,0.49-0.24,0.07-0.06c-0.12,0.05-0.24,0.1-0.35,0.15c-0.32,0.14-0.65,0.27-0.97,0.41c-0.62,0.26-1.24,0.52-1.86,0.77
				c-1.08,0.45-1.45,1.58-0.66,2.51c0.56,0.66,1.49,1.05,2.35,0.97c-0.5-0.5-1-1-1.5-1.5c0,0.04,0,0.07-0.01,0.11
				c0.07-0.25,0.14-0.5,0.2-0.76c-0.02,0.03-0.04,0.06-0.07,0.09c0.3-0.23,0.6-0.46,0.9-0.69c-0.03,0.01-0.07,0.03-0.1,0.04
				c-0.76,0.28-1.28,1.02-1.05,1.85c0.2,0.73,1.08,1.33,1.85,1.05c0.8-0.3,1.23-0.83,1.28-1.69c0.04-0.76-0.72-1.57-1.5-1.5
				c-0.1,0.01-0.19,0.02-0.29,0.01c0.06-0.01,0.11-0.01,0.16,0.02c0.09,0.04,0.06,0.02-0.08-0.06c0.12,0.08,0.11,0.06-0.01-0.07
				c-0.22,0.84-0.44,1.67-0.66,2.51c0.71-0.3,1.42-0.59,2.12-0.89c0.72-0.3,1.69-0.53,2.26-1.08c0.86-0.83,0.55-2.2-0.45-2.73
				c-0.28-0.15-0.56-0.2-0.86-0.25c-0.11-0.02-0.23-0.04-0.34-0.06c-0.05-0.01-0.1-0.02-0.16-0.04c0.32,0.09,0.53,0.31,0.65,0.67
				c-0.35,0.62-0.7,1.23-1.05,1.85c1.81-0.62,3.59-1.35,5.33-2.16c0.57-0.27,0.88-1.11,0.69-1.69c-0.45-1.43-1.77-1.55-3.04-1.72
				c-1.2-0.16-2.39-0.32-3.59-0.49c0.22,0.84,0.44,1.67,0.66,2.51c0.32-0.3,0.42-0.37,0.71-0.57c0.32-0.21,0.65-0.4,0.99-0.56
				c0.49-0.23,1.25-0.45,1.96-0.56c0.73-0.12,1.16-0.98,1.07-1.65c-0.1-0.72-0.72-1.32-1.47-1.3c-1.31,0.03-2.6,0.16-3.89,0.37
				c-1.1,0.18-2.89,0.32-3.41,1.5c-0.47,1.06,0.08,2.18,1.3,2.26c2.87,0.18,5.74-0.05,8.56-0.61c1.65-0.33,1.29-3.04-0.4-2.95
				c-3.28,0.18-6.55,0.36-9.83,0.53c-0.78,0.04-1.54,0.66-1.5,1.5C430.64,176.41,431.26,177.18,432.1,177.14L432.1,177.14z"/>
		</g>
	</g>
	<g>
		<g>
			<path class="st9" d="M449.72,183.24c1.93,0,1.93-3,0-3C447.79,180.24,447.79,183.24,449.72,183.24L449.72,183.24z"/>
		</g>
	</g>
	<g>
		<g>
			<path class="st9" d="M462.76,165.5c-2.76-0.55-4.73-0.78-7.49-0.01c-2.17,0.6-4.69,1.97-6.23,3.64c-0.4,0.49-0.78,0.99-1.16,1.49
				c-0.48,0.44-0.85,0.94-1.13,1.51c-1.35,2.15-1.79,4.64-1.92,7.12c-0.08,1.5,0.2,3.15,0.53,4.54c0.29,1.24,1.12,2.94,1.49,3.67
				c0.34,0.68,0.74,1.06,1.27,1.76c1.46,1.89,1.52,2.09,3.99,3.69c1.1,0.71,2.34,1.23,3.6,1.57c4.77,1.3,9.98-0.11,13.46-3.63
				c0.65-0.66,1.8-2.08,2.4-3.21c0.45-1.07,0.91-2.15,1.36-3.22c0.05-0.11,0.09-0.23,0.13-0.35c0.89-3.2,0.55-5.1,0.04-8.29
				c-0.42-1.76-1.22-3.29-2.42-4.59c-0.95-1.47-2.21-2.63-3.79-3.48c-1.55-0.99-3.22-1.52-5.02-1.6c-1.79-0.4-3.59-0.32-5.38,0.24
				c-1.07,0.45-2.15,0.91-3.22,1.36c-2.03,1.2-3.64,2.81-4.84,4.84c-0.45,1.07-0.91,2.15-1.36,3.22c-0.64,2.39-0.64,4.79,0,7.18
				c0.01,0.06,0.02,0.12,0.03,0.18c-0.16-1.2-0.32-2.39-0.48-3.59c0.01,0.19,0.01,0.37,0,0.56c0.16-1.2,0.32-2.39,0.48-3.59
				c-0.04,0.25-0.1,0.48-0.2,0.72c0.45-1.07,0.91-2.15,1.36-3.22c-0.09,0.17-0.18,0.32-0.29,0.48c0.7-0.91,1.41-1.82,2.11-2.73
				c-0.03,0.03-0.06,0.06-0.09,0.1c0.91-0.7,1.82-1.41,2.73-2.11c-0.04,0.02-0.07,0.04-0.11,0.06c2.27-0.61,4.54-1.23,6.81-1.84
				c-0.04,0-0.09,0-0.13,0c1.2,0.16,2.39,0.32,3.59,0.48c-0.04-0.02-0.08-0.03-0.12-0.05c1.07,0.45,2.15,0.91,3.22,1.36
				c-0.09-0.04-0.17-0.1-0.25-0.16c0.91,0.7,1.82,1.41,2.73,2.11c-0.07-0.06-0.14-0.14-0.2-0.21c0.7,0.91,1.41,1.82,2.11,2.73
				c-0.09-0.13-0.15-0.25-0.22-0.39c0.45,1.07,0.91,2.15,1.36,3.22c-0.07-0.2-0.12-0.39-0.16-0.6c0.16,1.2,0.32,2.39,0.48,3.59
				c-0.03-0.27-0.04-0.52-0.02-0.79c-0.16,1.2-0.32,2.39-0.48,3.59c0.01-0.11,0.04-0.21,0.08-0.31c-0.45,1.07-0.91,2.15-1.36,3.22
				c0.02-0.05,0.05-0.1,0.07-0.14c-0.7,0.91-1.41,1.82-2.11,2.73c0.06-0.09,0.14-0.17,0.23-0.23c-0.91,0.7-1.82,1.41-2.73,2.11
				c0.05-0.02,0.1-0.04,0.15-0.06c-1.07,0.45-2.15,0.91-3.22,1.36c0.05-0.01,0.1-0.01,0.15-0.02c-2.39,0-4.79,0-7.18,0
				c0.05,0.01,0.1,0.02,0.15,0.03c1.79,0.56,3.59,0.64,5.38,0.24c1.8-0.08,3.47-0.62,5.02-1.6c1.57-0.85,2.84-2.01,3.79-3.48
				c1.19-1.3,2-2.83,2.42-4.59c0.16-1.2,0.32-2.39,0.48-3.59c-0.01-2.44-0.62-4.71-1.84-6.81c-0.7-0.91-1.41-1.82-2.11-2.73
				C467.03,167.3,465.04,166.14,462.76,165.5L462.76,165.5z"/>
		</g>
	</g>
	<g>
		<g>
			<path class="st9" d="M458.4,186.48c17.37,0,17.4-27,0-27C441.03,159.48,441,186.48,458.4,186.48L458.4,186.48z"/>
		</g>
	</g>
	<g>
		<g>
			<path class="st9" d="M466.59,158.75c-0.06-0.06-0.11-0.11-0.17-0.17c-1.22-1.32-2.67-2.25-4.34-2.79
				c-1.61-0.85-3.34-1.23-5.2-1.16c-1.86-0.07-3.59,0.32-5.2,1.16c-1.67,0.54-3.12,1.47-4.34,2.79c-0.7,0.91-1.41,1.82-2.11,2.73
				c-1.22,2.11-1.84,4.38-1.84,6.81c0.16,1.2,0.32,2.39,0.48,3.59c0.64,2.29,1.8,4.27,3.47,5.96c0.06,0.06,0.11,0.11,0.17,0.17
				c1.22,1.32,2.67,2.25,4.34,2.79c1.61,0.85,3.34,1.23,5.2,1.16c1.86,0.07,3.59-0.32,5.2-1.16c1.67-0.54,3.12-1.47,4.34-2.79
				c0.7-0.91,1.41-1.82,2.11-2.73c1.22-2.11,1.84-4.38,1.84-6.81c-0.16-1.2-0.32-2.39-0.48-3.59
				C469.42,162.42,468.26,160.44,466.59,158.75L466.59,158.75z"/>
		</g>
	</g>
	<g>
		<g>
			<path class="st9" d="M455.51,178.73c17.37,0,17.4-27,0-27C438.14,151.73,438.11,178.73,455.51,178.73L455.51,178.73z"/>
		</g>
	</g>
	<g>
		<g>
			<path class="st9" d="M469.18,161.74c-0.01-0.05-0.01-0.1,0-0.15c-0.16,1.2-0.32,2.39-0.48,3.59c0.01-0.06,0.02-0.12,0.05-0.18
				c-0.45,1.07-0.91,2.15-1.36,3.22c0.02-0.04,0.04-0.07,0.06-0.11c-0.7,0.91-1.41,1.82-2.11,2.73c0.02-0.02,0.04-0.05,0.06-0.07
				c1.32-1.22,2.25-2.67,2.79-4.34c0.85-1.61,1.23-3.34,1.16-5.2c0.07-1.86-0.32-3.59-1.16-5.2c-0.54-1.67-1.47-3.12-2.79-4.34
				c-0.91-0.7-1.82-1.41-2.73-2.11c-2.11-1.22-4.38-1.84-6.81-1.84c-1.2,0.16-2.39,0.32-3.59,0.48c-2.29,0.64-4.27,1.8-5.96,3.47
				c-0.02,0.02-0.04,0.05-0.06,0.07c-0.7,0.91-1.41,1.82-2.11,2.73c-0.01,0.01-0.01,0.02-0.02,0.03c-0.02,0.03-0.03,0.05-0.04,0.08
				c-0.45,1.07-0.91,2.15-1.36,3.22c-0.01,0.01-0.01,0.03-0.02,0.04c-0.19,0.53-0.37,2.69-0.27,1.93c0.06-0.44-0.32,1.37-0.24,1.95
				c-0.07,1.86,0.32,3.59,1.16,5.2c0.54,1.67,1.47,3.12,2.79,4.34c1.22,1.32,2.67,2.25,4.34,2.79c1.61,0.85,3.34,1.23,5.2,1.16
				c1.2-0.16,2.39-0.32,3.59-0.48c2.29-0.64,4.27-1.8,5.96-3.47c0.7-0.91,1.41-1.82,2.11-2.73
				C468.56,166.45,469.17,164.18,469.18,161.74L469.18,161.74z"/>
		</g>
	</g>
	<g>
		<g>
			<path class="st9" d="M459.09,169.8c17.37,0,17.4-27,0-27C441.71,142.8,441.68,169.8,459.09,169.8L459.09,169.8z"/>
		</g>
	</g>
	<g>
		<g>
			<path class="st9" d="M460.28,169.29c17.37,0,17.4-27,0-27C442.9,142.29,442.87,169.29,460.28,169.29L460.28,169.29z"/>
		</g>
	</g>
	<g>
		<g>
			<path class="st9" d="M452.45,167.5c17.37,0,17.4-27,0-27C435.07,140.5,435.04,167.5,452.45,167.5L452.45,167.5z"/>
		</g>
	</g>
	<g>
		<g>
			<path class="st9" d="M440.86,166.69c0.05,0.18,0.1,0.37,0.14,0.55c-0.16-1.2-0.32-2.39-0.48-3.59c0.06,0.6,0.04,1.1-0.02,1.7
				c0.16-1.2,0.32-2.39,0.48-3.59c-0.58,3.43-1.08,6.79-1.04,10.27c0.09,7.06,6.15,13.83,13.5,13.5c7.24-0.32,13.59-5.93,13.5-13.5
				c-0.02-1.46-0.01-2.9,0.15-4.35c-0.16,1.2-0.32,2.39-0.48,3.59c0.61-4.09,1.37-7.65,0.29-11.76c-1.8-6.83-9.72-11.66-16.61-9.43
				C443.27,152.36,438.94,159.37,440.86,166.69L440.86,166.69z"/>
		</g>
	</g>
	<g>
		<g>
			<path class="st9" d="M439.69,177.49c0.07,0.16,0.15,0.32,0.22,0.48c-0.45-1.07-0.91-2.15-1.36-3.22
				c0.34,0.83,0.57,1.66,0.73,2.55c-0.16-1.2-0.32-2.39-0.48-3.59c0.06,0.32,0.07,0.64,0.05,0.96c0.16-1.2,0.32-2.39,0.48-3.59
				c-0.23,1.11-0.69,2.19-1.07,3.26c-1.12,3.16-0.29,7.59,1.36,10.4c1.64,2.8,4.85,5.47,8.07,6.2c3.46,0.79,7.33,0.62,10.4-1.36
				c3.08-1.98,4.98-4.61,6.2-8.07c0.85-2.41,1.59-4.69,1.56-7.33c-0.04-3.74-1.31-6.99-2.86-10.32c-1.35-2.9-5.1-5.39-8.07-6.2
				c-3.23-0.89-7.53-0.49-10.4,1.36c-2.88,1.86-5.42,4.63-6.2,8.07c-0.16,1.2-0.32,2.39-0.48,3.59
				C437.85,173.12,438.47,175.39,439.69,177.49L439.69,177.49z"/>
		</g>
	</g>
	<g>
		<g>
			<path class="st9" d="M436.63,173.4c-1.19,2.44-2.03,4.37-1.97,7.15c0.03,1.35,0.14,2.73,0.51,4.05c0.43,1.55,1.2,2.98,1.89,4.43
				c-0.45-1.07-0.91-2.15-1.36-3.22c0.09,0.21,0.14,0.4,0.18,0.62c-0.16-1.2-0.32-2.39-0.48-3.59c0,0.07,0,0.14,0,0.2
				c0.16-1.2,0.32-2.39,0.48-3.59c-0.01,0.07-0.02,0.13-0.04,0.2c0.45-1.07,0.91-2.15,1.36-3.22c-0.03,0.06-0.06,0.13-0.08,0.19
				c-0.99,1.55-1.52,3.22-1.6,5.02c-0.4,1.79-0.32,3.59,0.24,5.38c0.42,1.76,1.22,3.29,2.42,4.59c0.95,1.47,2.21,2.63,3.79,3.48
				c1.07,0.45,2.15,0.91,3.22,1.36c2.39,0.64,4.79,0.64,7.18,0c1.07-0.45,2.15-0.91,3.22-1.36c2.03-1.2,3.64-2.81,4.84-4.84
				c1.24-2.85,1.94-4.03,1.96-7.2c0.01-1.34-0.16-2.72-0.52-4c-0.44-1.53-1.19-2.95-1.88-4.38c0.45,1.07,0.91,2.15,1.36,3.22
				c-0.08-0.19-0.13-0.36-0.18-0.56c0.16,1.2,0.32,2.39,0.48,3.59c-0.02-0.12-0.02-0.24-0.01-0.36c-0.16,1.2-0.32,2.39-0.48,3.59
				c0.01-0.06,0.03-0.12,0.04-0.17c-0.45,1.07-0.91,2.15-1.36,3.22c0.03-0.06,0.05-0.11,0.08-0.17c0.99-1.55,1.52-3.22,1.6-5.02
				c0.4-1.79,0.32-3.59-0.24-5.38c-0.42-1.76-1.22-3.29-2.42-4.59c-0.95-1.47-2.21-2.63-3.79-3.48c-1.07-0.45-2.15-0.91-3.22-1.36
				c-2.39-0.64-4.79-0.64-7.18,0c-1.07,0.45-2.15,0.91-3.22,1.36C439.45,169.76,437.83,171.37,436.63,173.4L436.63,173.4z"/>
		</g>
	</g>
	<g>
		<g>
			<path class="st9" d="M455.83,201.99c3.02-0.22,6-0.72,8.97-1.25c0.45-0.08,0.89-0.16,1.34-0.24c1.05-0.17,0.59-0.11-1.36,0.17
				c-0.02-0.09,3.31-0.02,3.58,0.01c7.05,0.63,13.81-6.66,13.5-13.5c-0.35-7.85-5.94-12.83-13.5-13.5c-3-0.27-6,0.24-8.95,0.71
				c-0.9,0.14-1.79,0.32-2.68,0.48c-0.6,0.11-1.19,0.21-1.79,0.31c2.09-0.25,2.39-0.32,0.89-0.18c-7.03,0.52-13.84,5.83-13.5,13.5
				C442.64,195.35,448.29,202.55,455.83,201.99L455.83,201.99z"/>
		</g>
	</g>
	<g>
		<g>
			<path class="st9" d="M481.19,182.67c-0.99-4.73-0.85-10.16-2.23-15.24c-0.22-0.81-0.21-2.87-0.4-4.84
				c-0.32-3.31-1.16-6.48-1.95-9.69c-1.74-7.08-9.72-11.32-16.61-9.43c-7.21,1.98-11.17,9.5-9.43,16.61
				c0.45,1.82,1.14,4.11,1.19,4.84c0.25,3.3,0.19,6.46,1.16,9.69c1,3.37,1.08,9.78,2.23,15.24c1.5,7.14,9.89,11.28,16.61,9.43
				C479.16,197.25,482.69,189.83,481.19,182.67L481.19,182.67z"/>
		</g>
	</g>
	<g>
		<g>
			<path class="st9" d="M448.26,200.84c5.79,0,5.8-9,0-9C442.46,191.84,442.45,200.84,448.26,200.84L448.26,200.84z"/>
		</g>
	</g>
	<g>
		<g>
			<path class="st9" d="M435.62,183.8c5.79,0,5.8-9,0-9C429.83,174.8,429.82,183.8,435.62,183.8L435.62,183.8z"/>
		</g>
	</g>
	<g>
		<g>
			<path class="st9" d="M435.36,184.95c5.79,0,5.8-9,0-9C429.57,175.95,429.56,184.95,435.36,184.95L435.36,184.95z"/>
		</g>
	</g>
	<g>
		<g>
			<path class="st9" d="M436.64,190.12c5.79,0,5.8-9,0-9C430.85,181.12,430.84,190.12,436.64,190.12L436.64,190.12z"/>
		</g>
	</g>
	<g>
		<g>
			<path class="st9" d="M423.26,161.53c-0.17,0.28-0.34,0.56-0.5,0.84c-0.19,0.31-0.36,0.61-0.26,0.99
				c0.09,0.34,0.59,0.51,0.84,0.22c0.28-0.33,0.34-0.7,0.5-1.08c0.16-0.36,0.42-0.66,0.56-1.03c0.13-0.35,0.19-0.7,0.37-1.04
				c0.2-0.37,0.39-0.74,0.37-1.17c-0.02-0.34-0.3-0.54-0.63-0.48c-0.05,0.01-0.1,0.02-0.15,0.03c-0.27,0.05-0.42,0.37-0.35,0.62
				c0.08,0.28,0.35,0.39,0.62,0.35c0.43-0.07,0.86-0.13,1.3-0.17c0.23-0.02,0.45-0.04,0.68-0.05c0.11-0.01,0.23-0.01,0.34-0.02
				c0.07,0,0.2-0.03,0.26-0.01c-0.1-0.08-0.2-0.15-0.3-0.23c0.01,0.01,0.01,0.02,0.02,0.03c-0.02-0.08-0.05-0.17-0.07-0.25
				c0.03-0.24-0.06,0.03-0.1,0.09c-0.05,0.09-0.1,0.18-0.15,0.27c-0.1,0.18-0.2,0.35-0.3,0.53c-0.2,0.37-0.37,0.76-0.48,1.17
				c0.33,0.04,0.65,0.09,0.98,0.13c0.03-0.56-0.06-1.13-0.27-1.65c-0.08-0.21-0.24-0.37-0.48-0.37c-0.21,0-0.43,0.15-0.48,0.37
				c-0.06,0.26-0.02,0.5,0.14,0.72c0.09,0.13,0.19,0.22,0.32,0.31c0.05,0.04,0.13,0.11,0.17,0.13c0.07,0.03-0.03-0.01-0.02-0.04
				c-0.01,0.03-0.01,0.12-0.01,0.15c-0.01,0.12-0.03,0.25-0.05,0.37c-0.03,0.26-0.07,0.52-0.1,0.78c-0.04,0.27,0.26,0.5,0.5,0.5
				c0.3,0,0.46-0.23,0.5-0.5c0.03-0.23,0.06-0.47,0.09-0.7c0.03-0.24,0.09-0.49,0.06-0.73c-0.03-0.24-0.15-0.44-0.33-0.6
				c-0.07-0.06-0.17-0.14-0.25-0.19c-0.09-0.04-0.02-0.06-0.05,0.07c-0.32,0-0.64,0-0.96,0c0.18,0.45,0.26,0.9,0.23,1.38
				c-0.03,0.57,0.84,0.67,0.98,0.13c0.12-0.45,0.33-0.86,0.56-1.27c0.22-0.39,0.76-1.03,0.34-1.45c-0.21-0.21-0.56-0.16-0.84-0.15
				c-0.27,0.01-0.54,0.03-0.81,0.05c-0.57,0.05-1.13,0.12-1.69,0.21c0.09,0.32,0.18,0.64,0.27,0.96c0.05-0.01,0.1-0.02,0.15-0.03
				c-0.21-0.16-0.42-0.32-0.63-0.48c0.02,0.3-0.18,0.56-0.31,0.82c-0.18,0.34-0.24,0.7-0.37,1.05c-0.11,0.31-0.34,0.56-0.48,0.85
				c-0.08,0.16-0.14,0.33-0.19,0.5c-0.04,0.13-0.07,0.27-0.16,0.38c0.28,0.07,0.56,0.15,0.84,0.22c0.01,0.03-0.02,0.07,0.01,0.03
				c0.03-0.04,0.06-0.1,0.08-0.14c0.07-0.11,0.13-0.22,0.2-0.33c0.12-0.21,0.25-0.42,0.37-0.62
				C424.46,161.48,423.59,160.98,423.26,161.53L423.26,161.53z"/>
		</g>
	</g>
	<g id="XMLID_1_">
		<g>
			<linearGradient id="SVGID_1_" gradientUnits="userSpaceOnUse" x1="337.383" y1="170.07" x2="337.883" y2="170.07">
				<stop  offset="0" style="stop-color:#FFFFFF"/>
				<stop  offset="1" style="stop-color:#000000"/>
			</linearGradient>
			<path class="st10" d="M483.5,194.54c0.4,3.69-2.28,7-5.97,7.4l-30.06,3.21c-3.69,0.39-7-2.28-7.4-5.97l-0.39-3.69
				c-15.03-6.45-22.67-25.62-21.69-29.73l2.32-6.49l3.68-0.32l-2.68,7.5c-0.01,2.73,2.97,11.53,9.6,18.67
				c3.61,3.87,7.58,6.52,11.89,7.98l0.62,5.72c0.19,1.84,1.85,3.18,3.69,2.99l30.07-3.21c1.84-0.2,3.18-1.86,2.98-3.7l-4.99-46.77
				c-0.2-1.84-1.85-3.18-3.7-2.99c-1.84,0.2-3.18,1.86-2.98,3.7l1.07,10.02l-3.34,0.36l-1.43-13.36c-0.19-1.84-1.85-3.18-3.7-2.99
				c-1.84,0.2-3.18,1.86-2.98,3.7l1.43,13.36l-3.34,0.36l-1.79-16.7c-0.19-1.84-1.85-3.18-3.7-2.99c-1.84,0.2-3.18,1.86-2.98,3.7
				l1.78,16.7l-3.34,0.36l-2.14-20.04c-0.19-1.84-1.85-3.19-3.69-2.99c-1.85,0.2-3.19,1.86-2.99,3.7l2.93,27.39l-0.79,1.05
				c-1.43,1.91-3.34,3.04-5.52,3.28c-3.9,0.41-6.93-2.17-7.37-6.29c-0.29-2.65,0.55-6.4,1.21-8.84l3.59-0.31
				c-0.52,1.76-1.73,6.22-1.46,8.8c0.04,0.39,0.39,3.65,3.67,3.3c1.5-0.16,2.51-1.03,3.19-1.94l-2.79-26.09
				c-0.39-3.68,2.28-7,5.97-7.39c2.92-0.31,5.57,1.31,6.76,3.82c0.99-0.84,2.23-1.4,3.62-1.55c2.91-0.31,5.57,1.31,6.76,3.82
				c0.99-0.84,2.23-1.4,3.62-1.55c2.91-0.31,5.57,1.31,6.76,3.82c0.99-0.84,2.23-1.4,3.61-1.55c3.69-0.39,7.01,2.28,7.4,5.97
				L483.5,194.54z"/>
		</g>
		<g>
			<path class="st11" d="M483.5,194.54l-4.99-46.77c-0.39-3.69-3.71-6.36-7.4-5.97c-1.38,0.15-2.62,0.71-3.61,1.55
				c-1.19-2.51-3.85-4.13-6.76-3.82c-1.39,0.15-2.63,0.71-3.62,1.55c-1.19-2.51-3.85-4.13-6.76-3.82c-1.39,0.15-2.63,0.71-3.62,1.55
				c-1.19-2.51-3.84-4.13-6.76-3.82c-3.69,0.39-6.36,3.71-5.97,7.39l2.79,26.09c-0.68,0.91-1.69,1.78-3.19,1.94
				c-3.28,0.35-3.63-2.91-3.67-3.3c-0.27-2.58,0.94-7.04,1.46-8.8l-3.59,0.31c-0.66,2.44-1.5,6.19-1.21,8.84
				c0.44,4.12,3.47,6.7,7.37,6.29c2.18-0.24,4.09-1.37,5.52-3.28l0.79-1.05l-2.93-27.39c-0.2-1.84,1.14-3.5,2.99-3.7
				c1.84-0.2,3.5,1.15,3.69,2.99l2.14,20.04l3.34-0.36l-1.78-16.7c-0.2-1.84,1.14-3.5,2.98-3.7c1.85-0.19,3.51,1.15,3.7,2.99
				l1.79,16.7l3.34-0.36l-1.43-13.36c-0.2-1.84,1.14-3.5,2.98-3.7c1.85-0.19,3.51,1.15,3.7,2.99l1.43,13.36l3.34-0.36l-1.07-10.02
				c-0.2-1.84,1.14-3.5,2.98-3.7c1.85-0.19,3.5,1.15,3.7,2.99l4.99,46.77c0.2,1.84-1.14,3.5-2.98,3.7l-30.07,3.21
				c-1.84,0.19-3.5-1.15-3.69-2.99l-0.62-5.72c-4.31-1.46-8.28-4.11-11.89-7.98c-6.63-7.14-9.61-15.94-9.6-18.67l2.68-7.5
				l-3.68,0.32l-2.32,6.49c-0.98,4.11,6.66,23.28,21.69,29.73l0.39,3.69c0.4,3.69,3.71,6.36,7.4,5.97l30.06-3.21
				C481.22,201.54,483.9,198.23,483.5,194.54z"/>
		</g>
	</g>
</g>
</svg>
