<?xml version="1.0" standalone="no"?>
<!DOCTYPE svg PUBLIC "-//W3C//DTD SVG 20010904//EN"
 "http://www.w3.org/TR/2001/REC-SVG-20010904/DTD/svg10.dtd">
<svg version="1.0" xmlns="http://www.w3.org/2000/svg"
 width="938.000000pt" height="938.000000pt" viewBox="0 0 938.000000 938.000000"
 preserveAspectRatio="xMidYMid meet">
<metadata>
Created by potrace 1.14, written by Peter Selinger 2001-2017
</metadata>
<g transform="translate(0.000000,938.000000) scale(0.100000,-0.100000)"
fill="#000000" stroke="none">
<path d="M4524 9102 c-137 -66 -269 -251 -403 -564 -28 -65 -93 -242 -145
-395 -96 -282 -182 -507 -229 -598 l-25 -50 -104 105 c-224 227 -380 484 -508
835 -75 204 -151 354 -217 425 -93 101 -153 103 -243 11 -70 -72 -130 -191
-205 -411 -102 -298 -166 -434 -295 -628 -251 -376 -593 -632 -1085 -812 -293
-107 -468 -216 -496 -310 -37 -122 111 -231 486 -360 305 -105 513 -210 708
-356 93 -70 241 -206 286 -263 l30 -38 -142 -76 c-179 -95 -362 -176 -592
-261 -434 -160 -660 -262 -825 -370 -97 -64 -210 -177 -240 -240 -87 -182 31
-355 361 -530 139 -74 304 -141 596 -240 153 -52 341 -120 417 -151 723 -292
1312 -738 1758 -1330 269 -357 463 -734 661 -1280 158 -435 292 -691 441 -841
80 -80 146 -116 222 -122 44 -4 64 1 117 25 193 91 356 377 561 988 105 312
151 425 270 670 329 676 759 1179 1356 1584 339 230 617 368 1106 547 464 170
708 297 860 449 89 89 119 147 119 235 0 81 -28 141 -102 215 -150 153 -388
272 -880 439 -153 52 -341 120 -417 151 -978 395 -1712 1073 -2166 2000 -92
188 -143 311 -246 592 -170 464 -297 706 -449 859 -121 122 -226 151 -341 96z
m926 -3622 c40 -40 21 -133 -69 -338 -104 -236 -122 -477 -55 -711 14 -47 54
-147 89 -221 91 -195 104 -254 63 -297 -40 -43 -125 -27 -336 66 -237 104
-475 123 -710 55 -48 -14 -148 -54 -222 -89 -192 -90 -260 -105 -300 -65 -40
40 -21 133 69 338 104 236 122 477 55 711 -14 47 -54 147 -89 221 -90 192
-105 260 -65 300 40 40 120 25 301 -53 208 -91 378 -123 561 -106 130 12 246
48 408 124 193 91 260 105 300 65z"/>
</g>
</svg>
